{
  "accessors": [
    {
      "bufferView": 2,
      "componentType": 5126,
      "count": 8595,
      "max": [
        1.0345369577407837,
        1.044119954109192,
        4.783117771148682
      ],
      "min": [
        -1.028465986251831,
        -0.9996684193611145,
        -0.03519606962800026
      ],
      "type": "VEC3"
    },
    {
      "bufferView": 2,
      "byteOffset": 103140,
      "componentType": 5126,
      "count": 8595,
      "max": [
        0.9998725056648254,
        0.9999990463256836,
        0.9998639225959778
      ],
      "min": [
        -0.9995294213294983,
        -0.9997358322143555,
        -0.9999096393585205
      ],
      "type": "VEC3"
    },
    {
      "bufferView": 1,
      "componentType": 5126,
      "count": 8595,
      "max": [
        0.9907227158546448,
        0.9912108778953552
      ],
      "min": [
        -0.9921875,
        0.00495147705078125
      ],
      "type": "VEC2"
    },
    {
      "bufferView": 0,
      "componentType": 5125,
      "count": 24780,
      "type": "SCALAR"
    }
  ],
  "asset": {
    "extras": {
      "author": "nicholasklang03 (https://sketchfab.com/nicholasklang03)",
      "license": "CC-BY-4.0 (http://creativecommons.org/licenses/by/4.0/)",
      "source": "https://sketchfab.com/3d-models/goat-simulator-ailen-79fb7c137db745988aaa763f7931ff35",
      "title": "Goat simulator ailen"
    },
    "generator": "Sketchfab-16.62.0",
    "version": "2.0"
  },
  "bufferViews": [
    {
      "buffer": 0,
      "byteLength": 99120,
      "name": "floatBufferViews",
      "target": 34963
    },
    {
      "buffer": 0,
      "byteLength": 68760,
      "byteOffset": 99120,
      "byteStride": 8,
      "name": "floatBufferViews",
      "target": 34962
    },
    {
      "buffer": 0,
      "byteLength": 206280,
      "byteOffset": 167880,
      "byteStride": 12,
      "name": "floatBufferViews",
      "target": 34962
    }
  ],
  "buffers": [
    {
      "byteLength": 374160,
      "uri": "scene.bin"
    }
  ],
  "images": [
    {
      "uri": "textures/Material_baseColor.jpeg"
    }
  ],
  "materials": [
    {
      "doubleSided": true,
      "name": "Material",
      "pbrMetallicRoughness": {
        "baseColorTexture": {
          "index": 0
        },
        "metallicFactor": 0.0,
        "roughnessFactor": 0.6
      }
    }
  ],
  "meshes": [
    {
      "name": "Object_0",
      "primitives": [
        {
          "attributes": {
            "NORMAL": 1,
            "POSITION": 0,
            "TEXCOORD_0": 2
          },
          "indices": 3,
          "material": 0,
          "mode": 4
        }
      ]
    }
  ],
  "nodes": [
    {
      "children": [
        1
      ],
      "matrix": [
        0.9195989966392517,
        0.0,
        0.0,
        0.0,
        0.0,
        2.0419199589821784e-16,
        -0.9195989966392517,
        0.0,
        0.0,
        0.9195989966392517,
        2.0419199589821784e-16,
        0.0,
        0.0,
        0.0,
        0.0,
        1.0
      ],
      "name": "Sketchfab_model"
    },
    {
      "children": [
        2
      ],
      "name": "glomax.obj.cleaner.materialmerger.gles"
    },
    {
      "mesh": 0,
      "name": "Object_2"
    }
  ],
  "samplers": [
    {
      "magFilter": 9729,
      "minFilter": 9987,
      "wrapS": 10497,
      "wrapT": 10497
    }
  ],
  "scene": 0,
  "scenes": [
    {
      "name": "Sketchfab_Scene",
      "nodes": [
        0
      ]
    }
  ],
  "textures": [
    {
      "sampler": 0,
      "source": 0
    }
  ]
}
